<svg viewBox="0 0 1024 1024" version="1.1" xmlns="http://www.w3.org/2000/svg"
     width="64" height="64">
    <path d="M810.666667 469.333333a85.333333 85.333333 0 0 1 85.333333 85.333334v256a85.333333 85.333333 0 0 1-85.333333 85.333333H384a85.333333 85.333333 0 0 1-85.333333-85.333333v-256a85.333333 85.333333 0 0 1 85.333333-85.333334h426.666667zM213.333333 640v85.333333a85.333333 85.333333 0 0 1-85.333333-85.333333h85.333333z m0-170.666667v85.333334H128v-85.333334h85.333333z m0-170.666666v85.333333H128V298.666667h85.333333z m341.333334 0v85.333333h-85.333334V298.666667h85.333334zM213.333333 128v85.333333H128a85.333333 85.333333 0 0 1 78.933333-85.12L213.333333 128z m170.666667 0v85.333333H298.666667V128h85.333333z m85.333333 0a85.333333 85.333333 0 0 1 85.12 78.933333L554.666667 213.333333h-85.333334V128z"
          fill="#e6e6e6"/>
</svg>